<svg width="48" height="48" viewBox="0 0 48 48" fill="none" xmlns="http://www.w3.org/2000/svg">
<path d="M11.064 28.797V28.695C10.701 27.207 10.5 25.632 10.5 24C10.5 22.368 10.701 20.793 11.064 19.305V19.203C13.278 9.69 21.921 2.409 32.499 1.584C29.85 0.576 26.994 0 24 0C10.767 0 0 10.767 0 24C0 37.233 10.767 48 24 48C26.994 48 29.85 47.424 32.496 46.416C21.921 45.594 13.278 38.31 11.064 28.797Z" fill="white"/>
<path d="M38.409 4.851C37.14 4.629 35.835 4.5 34.5 4.5C30.372 4.5 26.532 5.628 23.28 7.545C23.52 7.53 23.757 7.5 24 7.5C31.455 7.5 37.5 14.886 37.5 24C37.5 33.114 31.455 40.5 24 40.5C23.757 40.5 23.52 40.47 23.28 40.455C26.529 42.372 30.372 43.5 34.5 43.5C35.835 43.5 37.14 43.371 38.409 43.149C44.22 38.763 48 31.824 48 24C48 16.176 44.22 9.237 38.409 4.851Z" fill="white"/>
</svg>
